<svg width="25" height="25" viewBox="0 0 25 25" fill="none" xmlns="http://www.w3.org/2000/svg">
<path d="M25 12.5C25 16.6184 23.0082 20.2714 19.9357 22.549C18.6495 23.5021 17.174 24.2143 15.576 24.6184C14.5918 24.8679 13.5617 25 12.5 25C11.4383 25 10.4077 24.8679 9.42349 24.6184C7.82554 24.2143 6.35 23.5021 5.06377 22.5484C1.99131 20.2709 0 16.6179 0 12.5C0 5.59644 5.59644 0 12.5 0C19.4036 0 25 5.59644 25 12.5Z" fill="#5ADAFD"/>
<path d="M19.9486 19.5383C19.8899 19.1449 19.8124 18.7398 19.7165 18.3255C19.6318 17.9618 19.5333 17.5908 19.4216 17.2143C19.1277 16.2255 18.7405 15.198 18.2711 14.1592C18.0655 13.7051 17.8441 13.249 17.6078 12.7934C17.3997 12.3919 17.1803 11.9898 16.9491 11.5903C16.7185 11.1903 16.4808 10.7995 16.2364 10.4184C15.9604 9.98628 15.6762 9.5669 15.3854 9.16177C14.7211 8.23574 14.0247 7.38628 13.315 6.63726C13.0451 6.35205 12.7731 6.08164 12.5002 5.82705C12.1895 5.53623 11.8772 5.26636 11.5655 5.0189C9.53026 3.40308 7.70833 2.91788 6.43436 3.65308C5.16038 4.38877 4.66956 6.20918 5.05121 8.78013C5.10936 9.17349 5.18744 9.57862 5.28387 9.99287C5.36756 10.3566 5.466 10.7276 5.57826 11.1041C5.87215 12.0929 6.25936 13.1209 6.72928 14.1592C6.93441 14.6133 7.15579 15.0688 7.39202 15.5245C7.60018 15.9265 7.8201 16.328 8.05072 16.728C8.28133 17.128 8.51908 17.5189 8.76346 17.9C9.03997 18.3326 9.32415 18.752 9.61448 19.1571C10.2788 20.0831 10.9752 20.9321 11.6849 21.6811C11.9548 21.9663 12.2272 22.2372 12.5002 22.4918C12.8109 22.7826 13.1231 23.052 13.4344 23.2994C14.1828 23.8938 14.9022 24.3351 15.5762 24.6183C17.1741 24.2142 18.6497 23.502 19.9359 22.5489C20.1154 21.7214 20.1221 20.7077 19.9486 19.5383ZM18.8027 22.3633C18.6542 23.0051 18.3812 23.4449 17.9909 23.6699C17.6012 23.8954 17.0838 23.9118 16.4537 23.7199C15.771 23.5112 14.9741 23.0551 14.1486 22.3995C13.8711 22.1791 13.593 21.9393 13.3149 21.6816C13.0425 21.4286 12.77 21.1582 12.4996 20.8719C12.0353 20.3806 11.5762 19.8428 11.1282 19.2658C10.8292 18.8806 10.5348 18.4781 10.2476 18.0602C9.83074 17.4546 9.42821 16.8168 9.04554 16.1536C8.66239 15.4903 8.31136 14.823 7.99554 14.1592C7.77718 13.7015 7.57562 13.2454 7.39198 12.7939C7.11595 12.1174 6.87972 11.4505 6.68636 10.8031C6.57411 10.4255 6.47567 10.0551 6.39349 9.69239C6.30877 9.323 6.23993 8.96177 6.18787 8.61128C6.0328 7.56895 6.03636 6.65059 6.19705 5.95518C6.34554 5.31333 6.61898 4.87354 7.00877 4.64854C7.21947 4.5271 7.46693 4.46587 7.74906 4.46587C7.98988 4.46587 8.25618 4.51026 8.54598 4.59903C9.22864 4.80718 10.0256 5.26382 10.8511 5.91895C11.1286 6.13936 11.4072 6.37915 11.6847 6.63784C11.9577 6.89038 12.2297 7.16079 12.4995 7.44654C12.9643 7.93785 13.4235 8.47564 13.872 9.05318C14.171 9.43838 14.4654 9.84092 14.7526 10.2588C15.1689 10.8644 15.5715 11.5022 15.9541 12.1649C16.3373 12.8282 16.6883 13.4955 17.0041 14.1593C17.2225 14.6174 17.4241 15.0736 17.6077 15.5251C17.8837 16.2016 18.12 16.868 18.3133 17.5154C18.4256 17.8929 18.524 18.2633 18.6067 18.6261C18.6908 18.9955 18.7597 19.3567 18.8118 19.7072C18.967 20.7495 18.9634 21.6679 18.8027 22.3633Z" fill="#F2F2F2"/>
<path d="M20.8827 10.3985C20.5128 10.2526 20.123 10.1174 19.7159 9.99287C19.3587 9.88418 18.9883 9.78369 18.6062 9.69239C17.6031 9.45259 16.5194 9.27403 15.3853 9.16177C14.8898 9.11226 14.3842 9.07608 13.872 9.05308C13.4199 9.03218 12.9618 9.02144 12.5001 9.02144C12.0383 9.02144 11.5801 9.03213 11.1276 9.05308C10.6148 9.07603 10.1092 9.1128 9.61382 9.16177C8.47964 9.27403 7.39649 9.45259 6.39341 9.69239C6.01128 9.78369 5.64087 9.88423 5.28369 9.99287C4.87656 10.1168 4.48677 10.2526 4.11685 10.3985C1.70005 11.3525 0.368408 12.6883 0.368408 14.1592C0.368408 15.6301 1.70005 16.9658 4.1169 17.9204C4.48682 18.0663 4.87608 18.2015 5.2832 18.326C5.64033 18.4347 6.01074 18.5352 6.39292 18.626C7.396 18.8663 8.47964 19.0444 9.61436 19.1571C10.1098 19.2061 10.6154 19.2423 11.1281 19.2658C11.5802 19.2867 12.0383 19.2969 12.5001 19.2969C12.9618 19.2969 13.4194 19.2867 13.8715 19.2658C14.3842 19.2423 14.8894 19.2061 15.3853 19.1571C16.5194 19.0449 17.6036 18.8663 18.6067 18.626C18.9888 18.5347 19.3592 18.4347 19.7164 18.3255C20.1231 18.2016 20.5128 18.0664 20.8827 17.9204C23.3001 16.9658 24.6312 15.6301 24.6312 14.1592C24.6312 12.6883 23.3001 11.3525 20.8827 10.3985ZM22.7562 15.5153C22.2347 16.0025 21.4409 16.4643 20.4607 16.8515C20.1307 16.9816 19.7837 17.103 19.4214 17.2143C19.0658 17.324 18.696 17.4245 18.3133 17.5153C17.6556 17.6719 16.9602 17.8005 16.2362 17.9C15.7536 17.9668 15.2582 18.0204 14.7525 18.0597C14.0194 18.1184 13.2658 18.148 12.5 18.148C11.7342 18.148 10.9806 18.1184 10.2475 18.0603C9.74185 18.0205 9.24595 17.9669 8.76328 17.9001C8.03931 17.8005 7.3439 17.672 6.68623 17.5153C6.30357 17.4245 5.93369 17.324 5.57808 17.2143C5.21582 17.1031 4.8689 16.9816 4.53877 16.8516C3.55869 16.4643 2.7648 16.0026 2.24336 15.5153C1.76172 15.0658 1.51733 14.6097 1.51733 14.1592C1.51733 13.7087 1.76172 13.2526 2.24336 12.8031C2.7648 12.3159 3.55864 11.8542 4.53877 11.4669C4.86885 11.3368 5.21582 11.2154 5.57808 11.1042C5.93369 10.9944 6.30357 10.8939 6.68623 10.8031C7.3439 10.6465 8.03931 10.5179 8.76328 10.4184C9.24595 10.3516 9.74185 10.298 10.2475 10.2582C10.9806 10.2001 11.7342 10.1705 12.5 10.1705C13.2658 10.1705 14.0194 10.2001 14.7525 10.2587C15.2582 10.298 15.7536 10.3516 16.2362 10.4185C16.9602 10.518 17.6556 10.6465 18.3133 10.8032C18.696 10.894 19.0658 10.9945 19.4214 11.1042C19.7837 11.2154 20.1306 11.3369 20.4607 11.4669C21.4408 11.8542 22.2347 12.3159 22.7562 12.8032C23.2378 13.2527 23.4822 13.7088 23.4822 14.1593C23.4822 14.6097 23.2378 15.0658 22.7562 15.5153Z" fill="#F2F2F2"/>
<path d="M18.5654 3.65308C17.2914 2.91788 15.4695 3.40308 13.4343 5.0189C13.1231 5.26636 12.8108 5.53623 12.5001 5.82705C12.2272 6.08164 11.9547 6.35254 11.6848 6.63775C10.9751 7.38672 10.2787 8.2357 9.61392 9.16172C9.32364 9.5668 9.03941 9.98623 8.76344 10.4184C8.51905 10.7995 8.28131 11.1903 8.05069 11.5903C7.82008 11.9903 7.6002 12.3918 7.392 12.7938C7.15577 13.2495 6.93433 13.7056 6.72926 14.1591C6.25933 15.1979 5.87213 16.2254 5.57823 17.2142C5.46597 17.5913 5.36754 17.9622 5.28331 18.3259C5.18741 18.7402 5.10933 19.1448 5.05118 19.5382C4.87769 20.7071 4.88433 21.7208 5.06392 22.5484C6.35015 23.502 7.82564 24.2142 9.42364 24.6183C10.0976 24.3352 10.817 23.8938 11.5655 23.2994C11.8772 23.052 12.1895 22.7821 12.5002 22.4918C12.7732 22.2372 13.0451 21.9667 13.315 21.6815C14.0242 20.9326 14.7211 20.0831 15.3854 19.157C15.6757 18.7519 15.9599 18.3325 16.2364 17.8999C16.4808 17.5188 16.7186 17.128 16.9492 16.728C17.1803 16.3285 17.3997 15.927 17.6079 15.5249C17.8441 15.0693 18.0655 14.6132 18.2712 14.1591C18.7405 13.1208 19.1278 12.0928 19.4216 11.104C19.5334 10.7275 19.6318 10.3565 19.716 9.99278C19.8125 9.57847 19.89 9.17339 19.9487 8.78003C20.3302 6.20918 19.8394 4.38877 18.5654 3.65308ZM18.3134 10.8031C18.12 11.4505 17.8838 12.1168 17.6078 12.7934C17.4241 13.2449 17.2226 13.701 17.0042 14.1592C16.6884 14.823 16.3374 15.4903 15.9542 16.1536C15.5715 16.8163 15.169 17.4541 14.7527 18.0597C14.4649 18.478 14.1706 18.8806 13.8716 19.2658C13.4236 19.8428 12.9645 20.3806 12.4997 20.8719C12.2298 21.1576 11.9578 21.428 11.6849 21.6811C11.4073 21.9392 11.1288 22.179 10.8512 22.3994C10.0257 23.055 9.22872 23.5111 8.5461 23.7198C7.91602 23.9117 7.39864 23.8953 7.00885 23.6698C6.61905 23.4448 6.34556 23.005 6.19713 22.3632C6.03643 21.6678 6.03282 20.7494 6.18795 19.7071C6.24 19.3566 6.30885 18.9954 6.39303 18.626C6.47569 18.2632 6.57413 17.8928 6.68638 17.5153C6.87974 16.8678 7.11597 16.201 7.392 15.5245C7.57569 15.073 7.7772 14.6168 7.99556 14.1592C8.31138 13.4954 8.66241 12.8281 9.04557 12.1648C9.42823 11.5015 9.83077 10.8638 10.2476 10.2582C10.5349 9.84029 10.8287 9.43775 11.1277 9.05308C11.5762 8.47554 12.0354 7.9378 12.4996 7.44644C12.77 7.16021 13.0425 6.8898 13.3149 6.63726C13.593 6.3791 13.871 6.13931 14.1486 5.9189C14.9741 5.26382 15.7711 4.80718 16.4537 4.59898C16.7435 4.51021 17.0098 4.46582 17.2506 4.46582C17.5327 4.46582 17.7807 4.52705 17.9909 4.64849C18.3812 4.87349 18.6542 5.31328 18.8026 5.95513C18.9633 6.65054 18.9669 7.5689 18.8118 8.61123C18.7597 8.96172 18.6909 9.32295 18.6062 9.69234C18.5241 10.0551 18.4256 10.4255 18.3134 10.8031Z" fill="#F2F2F2"/>
<path d="M12.5 16.4393C13.7593 16.4393 14.7801 15.4184 14.7801 14.1592C14.7801 12.8999 13.7593 11.8791 12.5 11.8791C11.2408 11.8791 10.22 12.8999 10.22 14.1592C10.22 15.4184 11.2408 16.4393 12.5 16.4393Z" fill="#F2F2F2"/>
</svg>
