<svg width="25" height="25" viewBox="0 0 25 25" fill="none" xmlns="http://www.w3.org/2000/svg">
<path d="M25 12.5C25 13.2561 24.9327 13.9964 24.8041 14.7153C23.7587 20.5623 18.6475 25 12.5 25C7.86836 25 3.825 22.4811 1.66582 18.7383C1.13877 17.8255 0.724512 16.8403 0.44082 15.801C0.153076 14.7495 0 13.6423 0 12.5C0 5.59644 5.59644 0 12.5 0C18.1979 0 23.0051 3.81226 24.5107 9.02549C24.8291 10.1286 25 11.2944 25 12.5Z" fill="#8F9ED1"/>
<path d="M6.35596 8.70306H1.75239L0.440674 15.801C0.724365 16.8403 1.13862 17.8255 1.66567 18.7383H2.09272L2.60088 15.9893H5.13047C8.21055 15.9893 9.03862 13.224 9.23711 11.8658C9.43609 10.5081 8.44273 8.70306 6.35596 8.70306ZM7.02383 12.0949C6.91108 12.8648 6.34219 14.4326 4.59629 14.4326H2.88862L3.6519 10.3015H5.39019C7.08457 10.3015 7.13657 11.325 7.02383 12.0949Z" fill="#F2F2F2"/>
<path d="M24.5104 9.02546C24.119 8.82341 23.6527 8.703 23.1139 8.703H18.5104L16.6558 18.7383H18.8506L19.3588 15.9893H21.8884C23.2583 15.9893 24.1828 15.4424 24.8037 14.7153C24.9323 13.9964 24.9997 13.2561 24.9997 12.5C24.9997 11.2944 24.8288 10.1285 24.5104 9.02546ZM23.7818 12.0948C23.669 12.8648 23.1001 14.4326 21.3537 14.4326H19.6466L20.4099 10.3015H22.1481C23.8425 10.3015 23.8945 11.325 23.7818 12.0948Z" fill="#F2F2F2"/>
<path d="M15.0993 8.73626C14.2059 8.73626 13.0141 8.73626 12.4334 8.73626L12.9338 6.02869H10.7479L8.89331 16.0637H11.0791L12.1457 10.2929C12.5397 10.2929 13.0632 10.2929 13.5427 10.2929C14.47 10.2929 15.0993 10.4916 14.9667 11.3527C14.8343 12.2138 14.0726 16.0224 14.0726 16.0224H16.2915C16.2915 16.0224 17.1526 11.7832 17.285 10.5909C17.4176 9.39861 16.3246 8.73626 15.0993 8.73626Z" fill="#F2F2F2"/>
</svg>
