<svg width="25" height="25" viewBox="0 0 25 25" fill="none" xmlns="http://www.w3.org/2000/svg">
<g clip-path="url(#clip0_1684_1362)">
<path d="M12.3764 4.63231C11.2212 5.44477 9.91199 6.36562 9.21047 7.88911C7.99201 10.5471 11.7037 13.4464 11.8624 13.5685C11.8993 13.5969 11.9434 13.611 11.9874 13.611C12.0341 13.611 12.0809 13.595 12.1189 13.5632C12.1926 13.5016 12.2135 13.3969 12.1692 13.3116C12.1558 13.2858 10.8235 10.6979 10.873 8.84131C10.8905 8.19468 11.7954 7.46113 12.7535 6.68452C13.6309 5.97319 14.6255 5.16698 15.2075 4.22386C16.485 2.14788 15.0651 0.106561 15.0506 0.0861506C14.9942 0.00695109 14.8901 -0.0217111 14.8011 0.0173027C14.7122 0.0565607 14.6629 0.152704 14.6832 0.247772C14.6861 0.261298 14.9622 1.61121 14.1938 3.00198C13.8773 3.57669 13.1818 4.06585 12.3764 4.63231Z" fill="#DB380E"/>
<path d="M17.2432 5.54776C17.3247 5.48638 17.3487 5.37442 17.2994 5.28506C17.25 5.1957 17.1426 5.1563 17.0472 5.19253C16.851 5.26714 12.2417 7.04386 12.2417 9.19059C12.2417 10.6704 12.8738 11.4522 13.3354 12.0231C13.5165 12.247 13.6728 12.4404 13.7243 12.6055C13.8693 13.0812 13.5257 13.9411 13.3813 14.2323C13.3396 14.316 13.36 14.4174 13.4309 14.4786C13.4691 14.5116 13.517 14.5284 13.5648 14.5284C13.6055 14.5284 13.6464 14.5163 13.6818 14.4917C13.761 14.4366 15.6187 13.1232 15.2855 11.5408C15.1614 10.9394 14.8658 10.4999 14.605 10.1121C14.201 9.5113 13.9092 9.07731 14.3519 8.27575C14.8706 7.34078 17.2195 5.56553 17.2432 5.54776Z" fill="#DB380E"/>
<path d="M5.245 14.5624C5.166 14.799 5.2033 15.0337 5.35277 15.2413C5.85243 15.935 7.6223 16.3169 10.3366 16.3169C10.3367 16.3169 10.3368 16.3169 10.3369 16.3169C10.7047 16.3169 11.093 16.3097 11.4907 16.2954C15.8303 16.1401 17.4399 14.7882 17.5063 14.7307C17.5786 14.668 17.598 14.5637 17.553 14.4794C17.508 14.395 17.411 14.3527 17.3182 14.3782C15.7899 14.7955 12.936 14.9436 10.9565 14.9436C8.7415 14.9436 7.61347 14.784 7.33729 14.6662C7.47899 14.4716 8.35302 14.1242 9.43608 13.9111C9.53959 13.8908 9.61074 13.7952 9.60048 13.6902C9.59023 13.5853 9.50205 13.5052 9.39653 13.5052C8.76166 13.5052 5.57782 13.5562 5.245 14.5624Z" fill="#73A1FB"/>
<path d="M19.7664 13.1699C18.8713 13.1699 18.0225 13.6185 17.9868 13.6375C17.904 13.6818 17.862 13.7767 17.8847 13.868C17.9075 13.959 17.9894 14.023 18.0833 14.0231C18.1023 14.0231 19.9926 14.0386 20.1638 15.1186C20.3154 16.0504 18.3752 17.5601 17.6148 18.0632C17.5327 18.1175 17.5008 18.2225 17.539 18.3133C17.5714 18.3906 17.6467 18.439 17.7278 18.439C17.742 18.439 17.7563 18.4375 17.7706 18.4345C17.9511 18.3959 22.185 17.4628 21.7373 14.9978C21.4642 13.487 20.5147 13.1699 19.7664 13.1699Z" fill="#73A1FB"/>
<path d="M16.8629 17.7615C16.8776 17.6826 16.8448 17.6023 16.779 17.5561L15.7638 16.845C15.7143 16.8104 15.6518 16.7995 15.5937 16.8148C15.5831 16.8175 14.5215 17.0966 12.9801 17.2678C12.3684 17.3364 11.6833 17.3726 10.9986 17.3726C9.45766 17.3726 8.45014 17.1916 8.30341 17.0587C8.28398 17.0214 8.29013 17.0045 8.2936 16.9951C8.32026 16.921 8.46313 16.8329 8.55522 16.798C8.65693 16.7604 8.71176 16.6499 8.68012 16.5462C8.64858 16.4423 8.5416 16.3813 8.43603 16.4066C7.41767 16.6524 6.91971 16.996 6.95595 17.428C7.0203 18.1939 8.79433 18.587 10.2941 18.6909C10.5098 18.7057 10.743 18.7131 10.9872 18.7131C10.9874 18.7131 10.9875 18.7131 10.9876 18.7131C13.4815 18.7131 16.6785 17.9307 16.7105 17.9227C16.7886 17.9037 16.8481 17.8406 16.8629 17.7615Z" fill="#73A1FB"/>
<path d="M9.20905 19.4053C9.28596 19.3553 9.32004 19.2602 9.29274 19.1727C9.26554 19.0851 9.18366 19.0276 9.09167 19.0288C8.95519 19.0324 7.75626 19.0865 7.67233 19.8499C7.64694 20.078 7.71227 20.2865 7.86661 20.4693C8.29708 20.9795 9.4591 21.2827 11.4184 21.3963C11.6502 21.4102 11.8857 21.4172 12.1183 21.4172C14.6093 21.4172 16.287 20.6372 16.3572 20.604C16.4253 20.5718 16.4703 20.5049 16.4743 20.4297C16.4783 20.3545 16.4407 20.2831 16.3765 20.2438L15.0935 19.4606C15.049 19.4335 14.9957 19.4245 14.9449 19.4349C14.9368 19.4366 14.1222 19.6055 12.8929 19.7724C12.6602 19.8041 12.3689 19.8201 12.0271 19.8201C10.7991 19.8201 9.43317 19.6195 9.17121 19.4881C9.1674 19.4636 9.17223 19.4324 9.20905 19.4053Z" fill="#73A1FB"/>
<path d="M10.9576 23.7721C16.6634 23.7672 19.7257 22.7525 20.3157 22.114C20.5245 21.8881 20.5471 21.6743 20.5294 21.5346C20.4855 21.1908 20.1724 20.9804 20.1369 20.9575C20.0512 20.9024 19.9363 20.9168 19.8695 20.9939C19.8028 21.0709 19.8013 21.1835 19.8682 21.2605C19.9042 21.3068 19.925 21.3843 19.8197 21.4896C19.5839 21.7099 17.2052 22.3785 13.2447 22.5794C12.7022 22.6076 12.1331 22.6219 11.5535 22.622C8.00743 22.622 5.41225 22.1363 5.07158 21.8533C5.20288 21.6646 6.12085 21.3632 7.09708 21.1927C7.20709 21.1735 7.2814 21.0698 7.26436 20.9595C7.24732 20.8492 7.14561 20.7732 7.03443 20.7876C7.00689 20.7914 6.91343 20.797 6.80523 20.8036C5.19448 20.9019 3.3331 21.1211 3.23598 21.9511C3.20648 22.204 3.28163 22.4335 3.45941 22.6333C3.89443 23.1221 5.14477 23.772 10.9574 23.772C10.9575 23.7721 10.9575 23.7721 10.9576 23.7721Z" fill="#73A1FB"/>
<path d="M21.4364 22.2939C21.3557 22.2566 21.2604 22.2755 21.2003 22.3404C21.1919 22.3495 20.334 23.2465 17.7547 23.7732C16.7673 23.9711 14.9138 24.0714 12.2456 24.0714C9.57253 24.0714 7.02891 23.9663 7.00357 23.9652C6.89732 23.96 6.80645 24.0373 6.792 24.1418C6.7775 24.2463 6.84488 24.3449 6.94747 24.3693C6.97393 24.3755 9.63962 25.0001 13.2844 25.0001C15.0325 25.0001 16.7335 24.8581 18.3404 24.5779C21.3366 24.0527 21.5464 22.567 21.5538 22.504C21.5643 22.416 21.5169 22.3312 21.4364 22.2939Z" fill="#73A1FB"/>
</g>
<defs>
<clipPath id="clip0_1684_1362">
<rect width="25" height="25" fill="white"/>
</clipPath>
</defs>
</svg>
