<svg width="25" height="25" viewBox="0 0 25 25" fill="none" xmlns="http://www.w3.org/2000/svg">
<path d="M24.8415 12.2225V15.057C24.8415 16.5564 23.6261 17.7715 22.1268 17.7715H13.6578C13.1927 17.7715 12.8191 18.1599 12.8408 18.6295C12.8626 19.0742 13.2473 19.4065 13.681 19.4065H15.6839C16.136 19.4065 16.5018 19.7729 16.5018 20.2244V22.2681C16.5018 23.7772 15.2784 25 13.7701 25H11.3941C9.88522 25 8.66184 23.7772 8.66184 22.2681V15.0681H2.91004C1.41068 15.0681 0.195312 13.8527 0.195312 12.3533V9.94263C0.195312 8.44326 1.41068 7.2279 2.91004 7.2279H8.66184V7.22752H11.1408C11.6049 7.22752 11.9789 6.84071 11.9577 6.37112C11.937 5.93128 11.5583 5.59216 11.1176 5.59216H9.47971C9.02824 5.59216 8.66184 5.22614 8.66184 4.77467V2.7319C8.66184 1.2228 9.88522 0 11.3941 0H13.7701C15.276 0 16.4974 1.21822 16.5018 2.72427V9.50775H22.1268C23.6261 9.50775 24.8415 10.7237 24.8415 12.2225Z" fill="#FFDA44"/>
<path d="M24.8415 12.2225V15.057C24.8415 16.5564 23.6262 17.7715 22.1268 17.7715H13.6578C13.1928 17.7715 12.8191 18.1599 12.8409 18.6295C12.8626 19.0742 13.2473 19.4065 13.681 19.4065H15.684C16.136 19.4065 16.5018 19.7729 16.5018 20.2244V22.2681C16.5018 23.7772 15.2784 25 13.7701 25H12.582V0H13.7701C15.276 0 16.4974 1.21822 16.5018 2.72427V9.50775H22.1268C23.6262 9.50775 24.8415 10.7237 24.8415 12.2225Z" fill="#FFCD00"/>
<path d="M15.7354 21.3459C15.7354 21.7974 15.3695 22.1634 14.9181 22.1634C14.4666 22.1634 14.1006 21.7974 14.1006 21.3459C14.1006 20.8944 14.4666 20.5286 14.9181 20.5286C15.3695 20.5286 15.7354 20.8944 15.7354 21.3459Z" fill="#4895FF"/>
<path d="M15.7355 21.3459C15.7355 21.7974 15.3697 22.1634 14.9182 22.1634V20.5286C15.3697 20.5286 15.7355 20.8944 15.7355 21.3459Z" fill="#2682FF"/>
<path d="M16.5018 2.72427V9.50775V10.6285C16.5018 11.532 15.77 12.2639 14.8664 12.2639H9.47971C9.02824 12.2639 8.66184 12.6305 8.66184 13.0814V15.0681H2.91004C1.41068 15.0681 0.195312 13.8523 0.195312 12.3533V9.94263C0.195312 8.44364 1.41068 7.2279 2.91004 7.2279H8.66184V7.22752H11.1408C11.6049 7.22752 11.9789 6.84071 11.9577 6.37112C11.937 5.93128 11.5583 5.59216 11.1176 5.59216H9.47971C9.02824 5.59216 8.66184 5.22614 8.66184 4.77467V2.7319C8.66184 1.2228 9.88522 0 11.3941 0H13.7701C15.276 0 16.4974 1.21822 16.5018 2.72427Z" fill="#4895FF"/>
<path d="M16.5018 2.72427V9.50775V10.6285C16.5018 11.532 15.77 12.2639 14.8665 12.2639H12.582V0H13.7701C15.276 0 16.4974 1.21822 16.5018 2.72427Z" fill="#2682FF"/>
<path d="M11.2516 3.84254C11.2516 4.29382 10.8856 4.65984 10.4341 4.65984C9.98204 4.65984 9.61621 4.29382 9.61621 3.84254C9.61621 3.39107 9.98204 3.02448 10.4341 3.02448C10.8856 3.02448 11.2516 3.39107 11.2516 3.84254Z" fill="#FFDA44"/>
<path d="M11.2516 3.84254C11.2516 4.29382 10.8856 4.65984 10.4341 4.65984V3.02448C10.8856 3.02448 11.2516 3.39107 11.2516 3.84254Z" fill="#FFCD00"/>
</svg>
