<svg width="25" height="25" viewBox="0 0 25 25" fill="none" xmlns="http://www.w3.org/2000/svg">
<path d="M25 12.5C25 14.3036 24.6179 16.0184 23.9301 17.5668C23.8184 17.8199 23.6975 18.0684 23.5694 18.3123C21.4771 22.2888 17.3051 25 12.5 25C7.43726 25 3.07754 21.9903 1.11226 17.6623C0.769385 16.9072 0.499512 16.1123 0.311768 15.2862C0.107666 14.3903 0 13.4577 0 12.5C0 5.59644 5.59644 0 12.5 0C18.1158 0 22.8663 3.70308 24.4439 8.80103C24.4939 8.96328 24.5408 9.12754 24.5847 9.29287V9.29336C24.6664 9.60254 24.7368 9.91528 24.7949 10.2332C24.822 10.3811 24.8464 10.5296 24.8679 10.6791C24.8827 10.7791 24.8964 10.8791 24.9082 10.9801C24.9306 11.1607 24.9484 11.3428 24.9627 11.526C24.9873 11.8475 25 12.1725 25 12.5Z" fill="#F2F2F2"/>
<path d="M17.967 3.78973C17.967 3.78973 18.3293 4.16238 18.3914 4.44183C18.3914 4.44183 18.6502 4.24515 18.4742 3.93465C18.2982 3.6241 17.967 3.78973 17.967 3.78973Z" fill="#5181A2"/>
<path d="M24.5848 9.29285C24.2593 9.12908 23.9633 9.03216 23.7317 8.97498C23.4184 8.89744 23.1649 8.66683 23.0552 8.36326C22.9144 7.97396 22.6521 7.34334 22.1695 6.38777C21.217 4.50408 20.1613 3.92449 19.468 3.43777C19.0129 3.11839 18.4149 3.05359 18.0578 3.04646C17.8777 3.0429 17.7042 2.97708 17.5659 2.86126C17.2022 2.55516 16.4868 2.19544 16.2593 2.33016C15.9797 2.49598 16.2593 2.87913 16.6522 3.36536C17.0455 3.85208 17.1287 4.39036 17.4078 5.11487C17.5369 5.44905 17.6925 5.6511 17.8221 5.77151C17.9578 5.89803 18.0022 6.09446 17.9302 6.26487C17.668 6.8848 17.5802 7.66995 17.7287 8.39598C17.9047 9.25516 18.3083 9.24495 18.3083 9.24495C18.267 8.09598 18.8675 7.59905 18.8675 7.59905C19.416 9.27557 20.6685 10.5282 20.6685 10.5282C19.6542 10.1659 18.8986 8.5098 18.8986 8.5098C18.8986 8.5098 18.816 8.59246 18.7435 9.14144C18.6711 9.68992 18.0083 10.021 17.5221 8.82054C17.0354 7.61951 17.667 6.10828 17.667 6.10828C17.3874 5.96336 16.8078 4.6282 16.8078 4.42103C16.8078 4.21439 16.5797 3.75877 16.3006 3.47918C16.0211 3.20008 15.4726 2.39246 16.1144 2.02C16.7557 1.64705 18.0292 2.6511 18.0292 2.6511C20.0374 2.57864 22.1073 5.02151 22.4384 5.8909C22.7695 6.76028 23.7011 8.49959 23.7011 8.49959C23.9654 8.57972 24.2139 8.68328 24.444 8.80111C24.494 8.96326 24.5409 9.12752 24.5848 9.29285Z" fill="#5181A2"/>
<path d="M24.9628 11.526C24.9526 11.5214 24.9429 11.5162 24.9332 11.5117C24.2914 11.201 24.0327 10.5489 24.0327 10.5489C24.199 10.3826 24.4939 10.2872 24.795 10.2331C24.822 10.381 24.8465 10.5295 24.8679 10.679C24.7557 10.7009 24.6848 10.7142 24.6848 10.7142C24.6848 10.7775 24.773 10.8719 24.9083 10.98C24.9307 11.1606 24.9485 11.3428 24.9628 11.526Z" fill="#5181A2"/>
<path d="M6.51226 18.294H5.53418C5.53418 18.294 5.53418 16.0588 5.20816 13.4037L3.6709 18.294H2.8791L1.3189 13.4271C1.3189 13.4271 1.13726 14.8572 1.11226 17.6623C0.769385 16.9072 0.499512 16.1123 0.311768 15.2863C0.383691 14.248 0.484717 13.1164 0.620459 12.1929H1.89341L3.34492 16.7108L4.88218 12.1929H6.04649C6.04644 12.1929 6.51226 16.1751 6.51226 18.294Z" fill="#FFA600"/>
<path d="M7.0519 13.8405L8.06108 13.825C8.06108 13.825 9.19448 17.2253 9.08584 17.6444C9.08584 17.6444 9.81558 15.6105 10.0019 13.825H10.9956C10.9956 13.825 10.4676 17.4271 8.85298 19.3213C8.24873 20.0301 7.57065 20.0388 6.9585 19.7723V19.2282C6.9585 19.2282 7.79722 19.5232 8.23198 18.9021C8.58198 18.4021 8.24771 17.5399 7.94204 16.6233C7.86792 16.4013 7.0519 13.8405 7.0519 13.8405Z" fill="#FFA600"/>
<path d="M11.6167 17.8466L11.8806 17.3186C11.8806 17.3186 13.6972 18.126 14.1629 17.3186C14.6287 16.5113 14.1785 16.0766 13.2624 15.5952C12.3464 15.1139 11.3838 14.5084 11.803 13.1886C12.2222 11.8689 14.4424 11.9621 15.079 12.5986L14.8617 13.111C14.8617 13.111 13.2159 12.4123 12.7657 13.3283C12.3154 14.2443 13.5109 14.6791 13.7904 14.8033C14.0699 14.9275 15.6225 15.5641 15.4518 16.6975C15.281 17.8309 14.5823 18.5296 12.9831 18.3898C12.4085 18.2502 12.0825 18.1571 11.6167 17.8466Z" fill="#5181A2"/>
<path d="M19.7975 17.9199C20.4837 17.3684 20.7781 16.3872 20.7781 15.2689C20.7781 13.5439 20.2817 12.1454 18.3205 12.1454C16.6317 12.1454 15.8628 13.5439 15.8628 15.2689C15.8628 16.9939 16.425 18.3924 18.3205 18.3924C18.595 18.3924 18.8439 18.3582 19.0684 18.2939L20.5286 19.1505L20.8857 18.4515L19.7975 17.9199ZM18.3205 17.6444C17.2215 17.6444 16.8955 16.5806 16.8955 15.2689C16.8955 13.9566 17.2062 12.8934 18.3205 12.8934C19.4572 12.8934 19.745 13.9567 19.745 15.2689C19.7449 16.5806 19.4572 17.6444 18.3205 17.6444Z" fill="#5181A2"/>
<path d="M23.9304 17.5668C23.8187 17.8199 23.6977 18.0683 23.5697 18.3122H21.6467V12.2255H22.6095V17.5668H23.9304V17.5668Z" fill="#5181A2"/>
</svg>
